<?xml version="1.0" encoding="utf-8"?><svg xmlns="http://www.w3.org/2000/svg" xmlns:xlink="http://www.w3.org/1999/xlink" xml:space="preserve" id="Layer_1" x="0px" y="0px" style="enable-background:new 0 0 300 77" version="1.1" viewBox="0 0 300 77"><style type="text/css">.st0{fill:var(--color-blue)}</style><g id="_2335465850304"><path d="M80.2,11.2l-11-11c-0.4-0.4-0.4-0.3-1-0.3h-9.1c-1.6,0-1.3-0.2-2.6,0.8L43.3,11.1L31.1,28.4L12.7-0.2H0
		l23.6,39.4L0,72.8h13.4l19.7-28.1h35.8l10.5-10.5c0.9-0.9,0.8-0.7,0.8-2C80.2,32.2,80.2,11.2,80.2,11.2z M41,33.5l15.8-22.4h12.1
		v22.4H41z M107.8-0.1v72.9h-1.4V-0.1H107.8z M136.4,14.7h8.4c1.7,0,3.1-0.5,4.1-1.3c1.1-0.8,1.6-2.2,1.6-3.9s-0.5-3.1-1.6-4
		s-2.4-1.3-4.1-1.3h-8.4V14.7z M133.9,2.1h11.4c1.1,0,2.2,0.2,3.1,0.5c0.9,0.3,1.7,0.8,2.4,1.4c0.6,0.6,1.2,1.4,1.5,2.3
		c0.4,0.9,0.6,1.9,0.6,3.1c0,1.1-0.2,2.2-0.6,3.1c-0.3,0.9-0.9,1.7-1.5,2.3c-0.7,0.6-1.5,1.1-2.4,1.4c-0.9,0.3-2,0.5-3.1,0.5h-9v11
		h-2.5V2.1L133.9,2.1z M169.5,17.2c0-0.9-0.2-1.7-0.5-2.5s-0.7-1.5-1.2-2.1s-1.1-1.1-1.9-1.5c-0.7-0.4-1.5-0.6-2.4-0.6
		s-1.8,0.2-2.5,0.6s-1.3,0.9-1.9,1.5c-0.5,0.6-0.9,1.3-1.2,2.1s-0.5,1.6-0.6,2.5H169.5L169.5,17.2z M157.5,19.1
		c0,0.8,0.1,1.7,0.3,2.5c0.2,0.9,0.6,1.7,1.1,2.3c0.5,0.7,1.1,1.3,1.9,1.7c0.8,0.5,1.7,0.7,2.8,0.7c1.7,0,2.9-0.4,3.9-1.3
		c0.9-0.9,1.5-2,1.9-3.5h2.3c-0.5,2.1-1.4,3.7-2.6,4.9c-1.3,1.1-3.1,1.7-5.4,1.7c-1.5,0-2.8-0.3-3.8-0.8c-1.1-0.5-1.9-1.2-2.6-2.1
		c-0.7-0.9-1.2-1.9-1.5-3.1s-0.5-2.4-0.5-3.7c0-1.2,0.2-2.5,0.5-3.6c0.3-1.2,0.8-2.2,1.5-3.1s1.5-1.7,2.6-2.2s2.3-0.8,3.8-0.8
		s2.8,0.3,3.8,0.9c1.1,0.6,1.9,1.4,2.6,2.4c0.6,1,1.1,2.1,1.4,3.3c0.3,1.3,0.4,2.6,0.4,3.9h-14.4V19.1z M191.2,27.8h-2.1v-3.5H189
		c-0.2,0.6-0.6,1.1-1.1,1.7c-0.5,0.5-1,0.9-1.6,1.3c-0.6,0.3-1.2,0.6-1.9,0.8s-1.4,0.3-2,0.3c-1.4,0-2.6-0.3-3.7-0.8
		c-1-0.5-1.9-1.2-2.6-2.1c-0.7-0.9-1.2-1.9-1.5-3.1s-0.5-2.4-0.5-3.7s0.2-2.6,0.5-3.8s0.9-2.2,1.5-3.1c0.7-0.9,1.6-1.6,2.6-2.1
		c1.1-0.5,2.3-0.8,3.7-0.8c0.7,0,1.4,0.1,2,0.2c0.6,0.2,1.2,0.5,1.9,0.8c0.6,0.3,1.1,0.8,1.5,1.3c0.5,0.5,0.8,1.1,1,1.7h0.1V2.1h2.3
		L191.2,27.8L191.2,27.8z M176.3,18.5c0,0.9,0.1,1.9,0.3,2.8s0.6,1.8,1.1,2.5c0.5,0.8,1.1,1.4,1.9,1.9c0.8,0.5,1.7,0.7,2.8,0.7
		c1.2,0,2.2-0.2,3-0.7s1.5-1.1,2-1.9c0.5-0.7,0.9-1.6,1.1-2.5c0.2-0.9,0.3-1.9,0.3-2.8c0-1-0.1-1.9-0.3-2.9
		c-0.2-0.9-0.6-1.8-1.1-2.5c-0.5-0.8-1.2-1.4-2-1.8c-0.8-0.5-1.8-0.7-3-0.7c-1.1,0-2,0.2-2.8,0.7s-1.4,1.1-1.9,1.8s-0.9,1.6-1.1,2.5
		S176.3,17.5,176.3,18.5z M195.5,9.2h2.1v4.3h0.1c0.6-1.5,1.5-2.7,2.7-3.5s2.6-1.2,4.3-1.1v2.3c-1,0-2,0.1-2.8,0.4
		c-0.8,0.3-1.5,0.8-2.2,1.4c-0.6,0.6-1.1,1.3-1.4,2.2c-0.3,0.8-0.5,1.7-0.5,2.7v9.9h-2.3L195.5,9.2L195.5,9.2z M214,10.6
		c-1.1,0-2,0.2-2.8,0.7s-1.5,1.1-2,1.8s-0.9,1.6-1.2,2.5c-0.3,0.9-0.4,1.9-0.4,2.9s0.1,1.9,0.4,2.9c0.3,0.9,0.7,1.8,1.2,2.5
		c0.5,0.8,1.2,1.4,2,1.8c0.8,0.5,1.7,0.7,2.8,0.7s2-0.2,2.8-0.7s1.5-1.1,2-1.8s0.9-1.6,1.2-2.5s0.4-1.9,0.4-2.9s-0.1-2-0.4-2.9
		c-0.3-0.9-0.7-1.8-1.2-2.5c-0.5-0.8-1.2-1.4-2-1.8C216.1,10.8,215.1,10.6,214,10.6z M214,8.7c1.4,0,2.7,0.3,3.8,0.8s2,1.2,2.7,2.1
		c0.8,0.9,1.3,1.9,1.7,3.1s0.6,2.5,0.6,3.8s-0.2,2.6-0.6,3.8c-0.4,1.2-0.9,2.2-1.7,3.1c-0.7,0.9-1.7,1.6-2.7,2.1
		c-1.1,0.5-2.4,0.8-3.8,0.8s-2.7-0.3-3.8-0.8s-2-1.2-2.7-2.1c-0.8-0.9-1.3-1.9-1.7-3.1s-0.6-2.5-0.6-3.8c0-1.4,0.2-2.6,0.6-3.8
		c0.4-1.2,0.9-2.2,1.7-3.1c0.7-0.9,1.7-1.6,2.7-2.1C211.4,9,212.6,8.7,214,8.7z M236.7,2.1h2.5v13.8L254,2.1h3.3l-11.5,10.6l12,15.1
		h-3.2L244,14.4l-4.9,4.6v8.8h-2.5L236.7,2.1L236.7,2.1z M272.9,17.2c0-0.9-0.2-1.7-0.5-2.5s-0.6-1.5-1.2-2.1
		c-0.5-0.6-1.1-1.1-1.8-1.5c-0.7-0.4-1.5-0.6-2.5-0.6c-0.9,0-1.8,0.2-2.5,0.6s-1.3,0.9-1.8,1.5s-0.9,1.3-1.2,2.1
		c-0.3,0.8-0.5,1.6-0.6,2.5H272.9z M260.9,19.1c0,0.8,0.1,1.7,0.3,2.5c0.2,0.9,0.6,1.7,1.1,2.3c0.5,0.7,1.1,1.3,1.9,1.7
		c0.8,0.5,1.7,0.7,2.8,0.7c1.7,0,2.9-0.4,3.9-1.3c0.9-0.9,1.6-2,1.9-3.5h2.3c-0.5,2.1-1.4,3.7-2.6,4.9c-1.3,1.1-3.1,1.7-5.4,1.7
		c-1.5,0-2.7-0.3-3.8-0.8c-1.1-0.5-2-1.2-2.6-2.1s-1.1-1.9-1.5-3.1c-0.3-1.2-0.5-2.4-0.5-3.7c0-1.2,0.2-2.5,0.5-3.6s0.8-2.2,1.5-3.1
		c0.7-0.9,1.5-1.7,2.6-2.2c1.1-0.6,2.3-0.8,3.8-0.8s2.8,0.3,3.8,0.9c1.1,0.6,1.9,1.4,2.6,2.4s1.1,2.1,1.4,3.3
		c0.3,1.3,0.4,2.6,0.3,3.9h-14.3L260.9,19.1z M278.2,2.1h2.3v10.4h0.1c0.5-1.1,1.2-2,2.3-2.7c1.1-0.7,2.3-1,3.6-1
		c1.3,0,2.4,0.2,3.3,0.5s1.6,0.8,2.1,1.4c0.5,0.6,0.9,1.4,1.1,2.2c0.2,0.9,0.3,1.9,0.3,3v11.9H291V16.2c0-0.8-0.1-1.5-0.2-2.2
		c-0.2-0.7-0.4-1.3-0.8-1.8s-0.9-0.9-1.5-1.2s-1.4-0.5-2.3-0.5s-1.7,0.2-2.4,0.5s-1.3,0.8-1.8,1.3c-0.5,0.6-0.9,1.2-1.2,2
		c-0.3,0.8-0.4,1.6-0.5,2.5v10.8H278V2.1L278.2,2.1z M297.6,2.1h2.3v25.7h-2.3C297.6,27.8,297.6,2.1,297.6,2.1z M133.9,52.8h2.3
		l4.5,15l4.3-15h2.4l4.3,15h0.1l4.5-15h2.3L153,70.3h-2.3l-4.3-14.7h-0.1L142,70.3h-2.3C139.7,70.3,133.9,52.8,133.9,52.8z
		 M173.4,60.3c0-0.8-0.2-1.6-0.5-2.3c-0.3-0.8-0.6-1.4-1.1-2s-1.1-1.1-1.7-1.4s-1.4-0.5-2.3-0.5c-0.9,0-1.7,0.2-2.3,0.5
		s-1.2,0.8-1.7,1.4c-0.5,0.6-0.9,1.2-1.1,2c-0.3,0.8-0.5,1.5-0.6,2.3H173.4L173.4,60.3z M162.1,62.1c0,0.8,0.1,1.5,0.3,2.4
		c0.2,0.8,0.6,1.5,1.1,2.2c0.5,0.6,1.1,1.2,1.8,1.6s1.6,0.6,2.6,0.6c1.6,0,2.8-0.4,3.7-1.2c0.9-0.8,1.5-1.9,1.9-3.3h2.1
		c-0.5,2-1.3,3.6-2.5,4.6c-1.2,1.1-2.9,1.6-5.1,1.6c-1.4,0-2.6-0.2-3.6-0.7s-1.9-1.1-2.5-2c-0.6-0.8-1.1-1.8-1.4-2.9
		c-0.3-1.1-0.5-2.3-0.5-3.6c0-1.1,0.2-2.3,0.5-3.4s0.8-2.1,1.4-3c0.6-0.9,1.4-1.5,2.5-2.1c1-0.5,2.2-0.8,3.6-0.8s2.6,0.3,3.6,0.9
		c1,0.6,1.8,1.3,2.5,2.2c0.6,0.9,1.1,2,1.3,3.1c0.3,1.2,0.4,2.4,0.3,3.6h-13.6L162.1,62.1z M178.4,46h2.2v10.1h0.1
		c0.2-0.6,0.5-1.2,0.9-1.7s0.9-0.9,1.4-1.2c0.6-0.3,1.1-0.6,1.8-0.7c0.6-0.2,1.3-0.3,1.9-0.3c1.4,0,2.5,0.3,3.5,0.8s1.8,1.2,2.5,2
		s1.2,1.8,1.5,2.9c0.3,1.1,0.5,2.3,0.5,3.5s-0.2,2.5-0.5,3.6c-0.3,1.1-0.8,2.1-1.5,2.9c-0.6,0.9-1.5,1.5-2.5,2s-2.1,0.7-3.5,0.7
		s-2.7-0.3-3.8-1c-1.1-0.6-1.9-1.6-2.4-2.8h-0.1v3.3h-2L178.4,46L178.4,46z M192.4,61.5c0-0.9-0.1-1.8-0.3-2.7s-0.5-1.7-1-2.4
		s-1.1-1.3-1.8-1.7s-1.6-0.6-2.6-0.6c-1.1,0-2.1,0.2-2.9,0.6c-0.8,0.5-1.4,1-1.9,1.7s-0.8,1.5-1.1,2.4c-0.2,0.9-0.3,1.8-0.3,2.7
		s0.1,1.8,0.3,2.7c0.2,0.9,0.6,1.7,1.1,2.4c0.5,0.7,1.1,1.3,1.9,1.7c0.8,0.5,1.7,0.7,2.9,0.7c1,0,1.9-0.2,2.6-0.7
		c0.8-0.4,1.3-1,1.8-1.7s0.8-1.5,1-2.4S192.4,62.4,192.4,61.5z M222.7,70.3h-2V67h-0.1c-0.2,0.6-0.5,1.1-1,1.5
		c-0.5,0.5-0.9,0.9-1.5,1.2c-0.6,0.3-1.2,0.6-1.8,0.8c-0.6,0.2-1.3,0.3-1.9,0.3c-1.3,0-2.5-0.2-3.5-0.7s-1.8-1.1-2.5-2
		c-0.6-0.8-1.1-1.8-1.4-2.9c-0.3-1.1-0.5-2.3-0.5-3.6s0.2-2.4,0.5-3.5s0.8-2.1,1.4-2.9c0.7-0.9,1.5-1.5,2.5-2s2.2-0.8,3.5-0.8
		c0.7,0,1.3,0.1,1.9,0.3c0.6,0.2,1.2,0.4,1.7,0.7c0.6,0.3,1,0.7,1.4,1.2s0.8,1,1,1.7h0.1V46h2.1v24.3H222.7z M208.7,61.5
		c0,0.9,0.1,1.8,0.3,2.7s0.6,1.7,1,2.4c0.5,0.7,1.1,1.3,1.8,1.7c0.7,0.5,1.6,0.7,2.6,0.7c1.1,0,2.1-0.2,2.9-0.7
		c0.8-0.4,1.4-1,1.9-1.7s0.9-1.5,1.1-2.4c0.2-0.9,0.3-1.8,0.3-2.7s-0.1-1.8-0.3-2.7s-0.6-1.7-1.1-2.4s-1.1-1.3-1.9-1.7
		c-0.8-0.4-1.7-0.6-2.9-0.6c-1,0-1.9,0.2-2.6,0.6c-0.7,0.5-1.3,1-1.8,1.7s-0.8,1.5-1,2.4S208.7,60.6,208.7,61.5z M239.4,60.3
		c0-0.8-0.2-1.6-0.4-2.3c-0.3-0.8-0.6-1.4-1.1-2s-1.1-1.1-1.7-1.4c-0.7-0.3-1.4-0.5-2.3-0.5c-0.9,0-1.7,0.2-2.3,0.5
		s-1.2,0.8-1.7,1.4c-0.5,0.6-0.8,1.2-1.1,2s-0.5,1.5-0.6,2.3H239.4L239.4,60.3z M228,62.1c0,0.8,0.1,1.5,0.3,2.4
		c0.2,0.8,0.6,1.5,1,2.2c0.5,0.6,1.1,1.2,1.8,1.6s1.6,0.6,2.6,0.6c1.5,0,2.8-0.4,3.7-1.2c0.9-0.8,1.5-1.9,1.8-3.3h2.2
		c-0.5,2-1.3,3.6-2.5,4.6c-1.2,1.1-2.9,1.6-5.1,1.6c-1.4,0-2.6-0.2-3.6-0.7s-1.8-1.1-2.5-2c-0.6-0.8-1.1-1.8-1.4-2.9
		c-0.3-1.1-0.5-2.3-0.5-3.6c0-1.1,0.2-2.3,0.5-3.4s0.8-2.1,1.4-3s1.4-1.5,2.5-2.1c1-0.5,2.2-0.8,3.6-0.8s2.6,0.3,3.6,0.9
		c1,0.6,1.8,1.3,2.4,2.2c0.6,0.9,1.1,2,1.4,3.1c0.3,1.2,0.4,2.4,0.3,3.6H228V62.1z M254.9,57.9c0-0.6-0.2-1.2-0.4-1.7
		s-0.6-0.9-1-1.2s-0.9-0.5-1.4-0.7c-0.6-0.2-1.1-0.2-1.7-0.2c-0.5,0-0.9,0-1.4,0.2c-0.5,0.1-0.9,0.3-1.4,0.5c-0.4,0.3-0.7,0.6-1,0.9
		c-0.2,0.4-0.4,0.9-0.4,1.4s0.2,0.9,0.4,1.2s0.5,0.6,0.9,0.8c0.3,0.2,0.8,0.4,1.2,0.5c0.4,0.2,0.8,0.3,1.2,0.4l2.9,0.6
		c0.6,0.1,1.2,0.3,1.8,0.5s1.1,0.5,1.6,0.9s0.8,0.8,1.1,1.4c0.3,0.6,0.5,1.2,0.5,2c0,0.9-0.2,1.8-0.6,2.4c-0.5,0.7-1,1.2-1.7,1.7
		c-0.6,0.4-1.4,0.7-2.3,0.9c-0.8,0.2-1.6,0.3-2.5,0.3c-2,0-3.7-0.5-5-1.4c-1.3-1-2-2.5-2.2-4.7h2.1c0.1,1.4,0.6,2.5,1.6,3.3
		c0.9,0.7,2.2,1.1,3.6,1.1c0.5,0,1.1-0.1,1.6-0.2c0.6-0.1,1.1-0.3,1.5-0.6c0.5-0.3,0.9-0.6,1.2-1s0.5-0.9,0.5-1.5
		c0-0.5-0.1-0.9-0.3-1.3c-0.2-0.3-0.5-0.6-0.9-0.9c-0.4-0.2-0.8-0.5-1.2-0.6c-0.5-0.2-0.9-0.3-1.4-0.4l-2.8-0.6
		c-0.7-0.2-1.3-0.4-1.9-0.6c-0.6-0.3-1.1-0.5-1.5-0.9c-0.5-0.3-0.8-0.8-1-1.3c-0.3-0.5-0.4-1.1-0.4-1.9c0-0.9,0.2-1.7,0.6-2.3
		c0.4-0.6,0.9-1.1,1.5-1.5s1.4-0.7,2.2-0.8c0.8-0.2,1.5-0.3,2.3-0.3c0.9,0,1.7,0.1,2.5,0.3s1.4,0.6,2,1.1s1,1.1,1.4,1.8
		c0.3,0.7,0.5,1.5,0.6,2.5h-2.4L254.9,57.9z M260.7,46h2.2v3.4h-2.2V46z M260.7,52.8h2.2v17.5h-2.2V52.8z M281.8,68.8
		c0,1.3-0.2,2.5-0.5,3.5s-0.7,1.9-1.3,2.6s-1.4,1.2-2.4,1.7c-1,0.4-2.2,0.6-3.6,0.6c-0.9,0-1.7-0.1-2.6-0.3
		c-0.8-0.2-1.6-0.5-2.3-0.9c-0.6-0.5-1.2-1-1.7-1.7c-0.4-0.6-0.7-1.5-0.8-2.4h2.2c0.1,0.6,0.3,1.2,0.6,1.6c0.3,0.5,0.7,0.8,1.2,1.1
		c0.5,0.3,0.9,0.5,1.5,0.6c0.6,0.2,1.2,0.2,1.7,0.2c2,0,3.4-0.6,4.3-1.7s1.3-2.8,1.3-4.9v-2.4h-0.1c-0.5,1.1-1.2,2-2.2,2.6
		c-0.9,0.6-2.1,1-3.4,1c-1.4,0-2.6-0.3-3.6-0.7c-1-0.5-1.8-1.1-2.5-1.9c-0.6-0.8-1.1-1.7-1.4-2.8c-0.3-1.1-0.5-2.3-0.5-3.5
		s0.2-2.3,0.5-3.4s0.9-2,1.5-2.8c0.7-0.8,1.5-1.4,2.5-1.9s2.1-0.7,3.4-0.7c0.7,0,1.3,0.1,1.9,0.3s1.1,0.4,1.6,0.8
		c0.5,0.3,0.9,0.7,1.2,1.1c0.4,0.4,0.7,0.9,0.9,1.4h0.1v-3h2.2v15.9L281.8,68.8z M274,68.3c0.9,0,1.7-0.2,2.5-0.6
		c0.7-0.4,1.3-0.9,1.7-1.5c0.5-0.6,0.8-1.4,1.1-2.2c0.2-0.8,0.3-1.7,0.3-2.6c0-0.9-0.1-1.7-0.3-2.6c-0.2-0.9-0.5-1.7-1-2.3
		c-0.5-0.7-1-1.3-1.7-1.7s-1.6-0.6-2.6-0.6s-1.9,0.2-2.6,0.6c-0.7,0.4-1.3,0.9-1.8,1.6c-0.5,0.7-0.8,1.5-1.1,2.3
		c-0.2,0.9-0.3,1.7-0.3,2.6c0,0.9,0.1,1.7,0.3,2.6c0.2,0.8,0.6,1.6,1,2.2c0.5,0.6,1.1,1.2,1.8,1.5C272.1,68.1,273,68.3,274,68.3z
		 M285.8,52.8h2.2v3h0.1c0.4-1.1,1.1-1.9,2.2-2.6c1.1-0.6,2.2-1,3.4-1c1.2,0,2.2,0.2,3.1,0.5c0.8,0.3,1.5,0.8,2,1.3
		c0.5,0.6,0.8,1.3,1,2.2c0.2,0.8,0.3,1.7,0.3,2.8v11.3H298v-11c0-0.8-0.1-1.4-0.2-2.1c-0.2-0.6-0.4-1.2-0.7-1.7
		c-0.3-0.5-0.8-0.8-1.4-1.1s-1.3-0.4-2.2-0.4c-0.8,0-1.6,0.2-2.3,0.5c-0.7,0.3-1.2,0.7-1.7,1.2s-0.8,1.2-1.1,1.9
		c-0.3,0.7-0.4,1.5-0.4,2.4v10.2h-2.2L285.8,52.8L285.8,52.8z" class="st0"/></g></svg>